<?xml version="1.0" encoding="utf-8"?>
<?xml-stylesheet type="text/xsl" href="rss1.xsl"?>
<rss version="2.0" xmlns:atom="http://www.w3.org/2005/Atom" xmlns:content="http://purl.org/rss/1.0/modules/content/" xmlns:dc="http://purl.org/dc/elements/1.1/" xmlns:media="http://search.yahoo.com/mrss/">
<channel>
 <title>Getty</title>
 <link>http://www.gettyimg.com/</link>
 <atom:link href="http://www.gettyimg.com/" rel="self" type="application/rss+xml" />

 
                <item>
                <title><![CDATA[【SD】Tom Novy Feat. Lima - Take It (2005, DVD-Rip, Dance/House)]]></title>
                <link><![CDATA[https://sharemania.us/threads/tom-novy-feat-lima-take-it-2005-dvd-rip-dance-house.249884/]]></link>
                <description><![CDATA[<article>
<blockquote class="messageText SelectQuoteContainer ugc baseHtml">
Tom Novy Feat. Lima - Take It (2005, DVD-Rip, Dance/House)<br>
<br>
<img src="https://images2.imgbox.com/87/22/HQiaNen0_o.jpg" class="bbCodeImage LbImage" alt="[​IMG]" data-url="https://images2.imgbox.com/87/22/HQiaNen0_o.jpg" style=""> <br>
<br>
<span data-s9e-mediaembed="youtube" style="display:inline-block;width:100%;max-width:640px"><span style="display:block;overflow:hidden;position:relative;padding-bottom:56.25%"><iframe allowfullscreen="" loading="lazy" scrolling="no" style="background:url(https://i.ytimg.com/vi/5l_xJEeTGaA/hqdefault.jpg) 50% 50% / cover;border:0;height:100%;left:0;position:absolute;width:100%" src="https://www.youtube.com/embed/5l_xJEeTGaA"></iframe></span></span><br>
<br>
<div class="bbCodeBlock bbCodeVfcHH HiddenContent">
<div class="attribution type">Hidden Content:</div>
<blockquote>You must reply before you can see the hidden data contained here.</blockquote>
</div>Greets, 3rsin.
<div class="messageTextEndMarker">&nbsp;</div>
</blockquote>
</article>]]></description>
                <author><![CDATA[fritching]]></author>
                </item>

                
                <item>
                <title><![CDATA[【SD】Dr.Motte &amp; Westbam - Loveparade 1998 (One World One Future) (TV-Rip, Electronic)]]></title>
                <link><![CDATA[https://sharemania.us/threads/dr-motte-westbam-loveparade-1998-one-world-one-future-tv-rip-electronic.249887/]]></link>
                <description><![CDATA[<article>
<blockquote class="messageText SelectQuoteContainer ugc baseHtml">
Dr.Motte &amp; Westbam - Loveparade 1998 (One World One Future) (TV-Rip, Electronic)<br>
<br>
<img src="https://images2.imgbox.com/04/cd/D1WSA0aQ_o.jpg" class="bbCodeImage LbImage" alt="[​IMG]" data-url="https://images2.imgbox.com/04/cd/D1WSA0aQ_o.jpg" style=""> <br>
<br>
<span data-s9e-mediaembed="youtube" style="display:inline-block;width:100%;max-width:640px"><span style="display:block;overflow:hidden;position:relative;padding-bottom:56.25%"><iframe allowfullscreen="" loading="lazy" scrolling="no" style="background:url(https://i.ytimg.com/vi/CDJ20spGymE/hqdefault.jpg) 50% 50% / cover;border:0;height:100%;left:0;position:absolute;width:100%" src="https://www.youtube.com/embed/CDJ20spGymE"></iframe></span></span><br>
<br>
<div class="bbCodeBlock bbCodeVfcHH HiddenContent">
<div class="attribution type">Hidden Content:</div>
<blockquote>You must reply before you can see the hidden data contained here.</blockquote>
</div>Greets, 3rsin.
<div class="messageTextEndMarker">&nbsp;</div>
</blockquote>
</article>]]></description>
                <author><![CDATA[fritching]]></author>
                </item>

                
                <item>
                <title><![CDATA[【Apple Music】WEB-RiP - Pitbull, Sak Noel &amp; Salvi - Que Rica (Tocame) [Clean] (1080p)]]></title>
                <link><![CDATA[https://sharemania.us/threads/pitbull-sak-noel-salvi-que-rica-tocame-clean-1080p.249885/]]></link>
                <description><![CDATA[<article>
<blockquote class="messageText SelectQuoteContainer ugc baseHtml">
<img src="https://i.postimg.cc/CM2HBzf8/Pitbull-Sak-Noel-Salvi-Que-Rica-Tocame-Clean-mp4.jpg" class="bbCodeImage LbImage" alt="[​IMG]" data-url="https://i.postimg.cc/CM2HBzf8/Pitbull-Sak-Noel-Salvi-Que-Rica-Tocame-Clean-mp4.jpg" style=""> <br>
<br>
<div class="bbCodeBlock bbCodeCode">
<div class="type">Code:</div>
<pre>General
Complete name                  : G:\Новая папка\Pitbull, Sak Noel &amp; Salvi - Que Rica (Tocame) [Clean].mp4
Format                         : MPEG-4
Format profile                 : Base Media
Codec ID                       : isom (isom/iso2/avc1/mp41)
File size                      : 212 MiB
Duration                       : 2 min 57 s
Overall bit rate               : 10.0 Mb/s
Frame rate                     : 23.976 FPS
Movie name                     : Que Rica (Tocame) [Clean]
Performer                      : Pitbull, Sak Noel &amp; Salvi
Genre                          : Dance
ContentType                    : Music Video
Recorded date                  : 2020-11-13 08:00:00 UTC
Writing application            : Lavf56.30.100
Copyright                      : ℗ 2020 Mad Decent under exclusive license from Mr. 305 Records/Barnaton/DJcity Records

Video
ID                             : 1
Format                         : AVC
Format/Info                    : Advanced Video Codec
Format profile                 : High@L4
Format settings                : CABAC / 4 Ref Frames
Format settings, CABAC         : Yes
Format settings, Reference fra : 4 frames
Format settings, Slice count   : 8 slices per frame
Codec ID                       : avc1
Codec ID/Info                  : Advanced Video Coding
Duration                       : 2 min 57 s
Bit rate                       : 9 759 kb/s
Width                          : 1 920 pixels
Height                         : 1 012 pixels
Display aspect ratio           : 1.897
Frame rate mode                : Constant
Frame rate                     : 23.976 (24000/1001) FPS
Color space                    : YUV
Chroma subsampling             : 4:2:0
Bit depth                      : 8 bits
Scan type                      : Progressive
Bits/(Pixel*Frame)             : 0.209
Stream size                    : 206 MiB (97%)
Color range                    : Limited
Color primaries                : BT.709
Transfer characteristics       : BT.709
Matrix coefficients            : BT.709
Codec configuration box        : avcC

Audio
ID                             : 2
Format                         : AAC LC
Format/Info                    : Advanced Audio Codec Low Complexity
Codec ID                       : mp4a-40-2
Duration                       : 2 min 57 s
Duration_LastFrame             : -20 ms
Bit rate mode                  : Constant
Bit rate                       : 248 kb/s
Channel(s)                     : 2 channels
Channel layout                 : L R
Sampling rate                  : 48.0 kHz
Frame rate                     : 46.875 FPS (1024 SPF)
Compression mode               : Lossy
Stream size                    : 5.24 MiB (2%)
Default                        : Yes
Alternate group                : 1

</pre>
</div>
<div class="bbCodeBlock bbCodeVfcHH HiddenContent">
<div class="attribution type">Hidden Content:</div>
<blockquote>You must either reply or click 'Like' to see the hidden information contained here.</blockquote>
</div>
<div class="messageTextEndMarker">&nbsp;</div>
</blockquote>
</article>]]></description>
                <author><![CDATA[vitalya3]]></author>
                </item>

                
                <item>
                <title><![CDATA[【Requests】[REQ AUD] - Ivan Torrent - Reverie - The Compilation Album &amp; The Sript - Superhero &amp; Haimin music - Mistakes]]></title>
                <link><![CDATA[https://sharemania.us/threads/ivan-torrent-reverie-the-compilation-album-the-sript-superhero-haimin-music-mistakes.249890/]]></link>
                <description><![CDATA[<article>
<blockquote class="messageText SelectQuoteContainer ugc baseHtml">
Can anyone please provide these in lossless (FLAC/WAV)?<br>
<span style="font-size: 18px"><br>
<b>The Script</b> :- Superhero</span><br>
<a href="https://music.amazon.com/albums/B00MRWKUFO" target="_blank" class="externalLink" rel="nofollow">https://music.amazon.com/albums/B00MRWKUFO</a><br>
<br>
<span style="font-size: 18px"><b>Ivan Torrent</b> :- Reverie - The Compilation Album</span><br>
<a href="https://music.amazon.com/albums/B00RZE2EBW" target="_blank" class="externalLink" rel="nofollow">https://music.amazon.com/albums/B00RZE2EBW</a><br>
<br>
<span style="font-size: 18px"><b>Haimin music</b> :- Mistakes</span><br>
<iframe data-s9e-mediaembed="soundcloud" allowfullscreen="" loading="lazy" scrolling="no" src="https://w.soundcloud.com/player/?url=https%3A//api.soundcloud.com/tracks/246608108&amp;secret_token=" style="border:0;height:166px;max-width:900px;width:100%"></iframe>
<div class="messageTextEndMarker">&nbsp;</div>
</blockquote>
</article>]]></description>
                <author><![CDATA[waahid]]></author>
                </item>

                
                <item>
                <title><![CDATA[【Requests】[REQ AUD] - QOBUZ singles + albums]]></title>
                <link><![CDATA[https://sharemania.us/threads/qobuz-singles-albums.249892/]]></link>
                <description><![CDATA[<article>
<blockquote class="messageText SelectQuoteContainer ugc baseHtml">
<a href="https://www.qobuz.com/ie-en/album/gone-bebe-rexha/0054391968609" target="_blank" class="externalLink" rel="nofollow">https://www.qobuz.com/ie-en/album/gone-bebe-rexha/0054391968609</a> in 24bit plz!<br>
<br>
<a href="https://www.qobuz.com/us-en/album/grrrl-deluxe-sizzy-rocket/ab0bimqv9nh9a" target="_blank" class="externalLink" rel="nofollow">https://www.qobuz.com/us-en/album/grrrl-deluxe-sizzy-rocket/ab0bimqv9nh9a</a><br>
<br>
<a href="https://www.qobuz.com/us-en/album/afraid-of-heights-wavves/0093624945352" target="_blank" class="externalLink" rel="nofollow">https://www.qobuz.com/us-en/album/afraid-of-heights-wavves/0093624945352</a><br>
<br>
I wasn't able to find a link for the last one, but Icona Pop's first eponymous album from 2012 that was only released in Sweden<br>
<br>
Thank you so much!!
<div class="messageTextEndMarker">&nbsp;</div>
</blockquote>
</article>]]></description>
                <author><![CDATA[edgyexx123]]></author>
                </item>

                
                <item>
                <title><![CDATA[【Apple Music】WEB-RiP - Sofía Reyes - R.I.P. (feat. Rita Ora &amp; Anitta) (1080p)]]></title>
                <link><![CDATA[https://sharemania.us/threads/sof%C3%ADa-reyes-r-i-p-feat-rita-ora-anitta-1080p.249891/]]></link>
                <description><![CDATA[<article>
<blockquote class="messageText SelectQuoteContainer ugc baseHtml">
<img src="https://i.postimg.cc/D0cFS82b/Sof-a-Reyes-R-I-P-feat-Rita-Ora-Anitta-mp4.jpg" class="bbCodeImage LbImage" alt="[​IMG]" data-url="https://i.postimg.cc/D0cFS82b/Sof-a-Reyes-R-I-P-feat-Rita-Ora-Anitta-mp4.jpg" style=""><br>
<br>
<div class="bbCodeBlock bbCodeCode">
<div class="type">Code:</div>
<pre>General
Complete name                  : G:\Новая папка\Sofía Reyes - R.I.P. (feat. Rita Ora &amp; Anitta).mp4
Format                         : MPEG-4
Format profile                 : Base Media
Codec ID                       : isom (isom/iso2/avc1/mp41)
File size                      : 247 MiB
Duration                       : 3 min 23 s
Overall bit rate               : 10.2 Mb/s
Frame rate                     : 23.976 FPS
Movie name                     : R.I.P. (feat. Rita Ora &amp; Anitta)
Performer                      : Sofía Reyes
Genre                          : Pop in Spanish
ContentType                    : Music Video
Recorded date                  : 2019-03-15 07:00:00 UTC
Writing application            : Lavf56.30.100
Copyright                      : ℗ 2019 Warner Music Latina

Video
ID                             : 1
Format                         : AVC
Format/Info                    : Advanced Video Codec
Format profile                 : High@L4
Format settings                : CABAC / 5 Ref Frames
Format settings, CABAC         : Yes
Format settings, Reference fra : 5 frames
Format settings, Slice count   : 8 slices per frame
Codec ID                       : avc1
Codec ID/Info                  : Advanced Video Coding
Duration                       : 3 min 23 s
Bit rate                       : 9 941 kb/s
Width                          : 1 920 pixels
Height                         : 844 pixels
Display aspect ratio           : 2.25:1
Frame rate mode                : Constant
Frame rate                     : 23.976 (24000/1001) FPS
Color space                    : YUV
Chroma subsampling             : 4:2:0
Bit depth                      : 8 bits
Scan type                      : Progressive
Bits/(Pixel*Frame)             : 0.256
Stream size                    : 241 MiB (97%)
Color range                    : Limited
Color primaries                : BT.709
Transfer characteristics       : BT.709
Matrix coefficients            : BT.709
Codec configuration box        : avcC

Audio
ID                             : 2
Format                         : AAC LC
Format/Info                    : Advanced Audio Codec Low Complexity
Codec ID                       : mp4a-40-2
Duration                       : 3 min 23 s
Duration_LastFrame             : -16 ms
Bit rate mode                  : Constant
Bit rate                       : 257 kb/s
Channel(s)                     : 2 channels
Channel layout                 : L R
Sampling rate                  : 48.0 kHz
Frame rate                     : 46.875 FPS (1024 SPF)
Compression mode               : Lossy
Stream size                    : 6.23 MiB (3%)
Default                        : Yes
Alternate group                : 1

</pre>
</div>
<div class="bbCodeBlock bbCodeVfcHH HiddenContent">
<div class="attribution type">Hidden Content:</div>
<blockquote>You must either reply or click 'Like' to see the hidden information contained here.</blockquote>
</div>
<div class="messageTextEndMarker">&nbsp;</div>
</blockquote>
</article>]]></description>
                <author><![CDATA[vitalya3]]></author>
                </item>

                
                <item>
                <title><![CDATA[【Apple Music】WEB-RiP - Elena - Acasa la noi (1080p)]]></title>
                <link><![CDATA[https://sharemania.us/threads/elena-acasa-la-noi-1080p.249888/]]></link>
                <description><![CDATA[<article>
<blockquote class="messageText SelectQuoteContainer ugc baseHtml">
<img src="https://i.postimg.cc/qqz6LXWT/Elena-Acasa-la-noi-mp4.jpg" class="bbCodeImage LbImage" alt="[​IMG]" data-url="https://i.postimg.cc/qqz6LXWT/Elena-Acasa-la-noi-mp4.jpg" style=""><br>
<br>
<div class="bbCodeBlock bbCodeCode">
<div class="type">Code:</div>
<pre>General
Complete name                  : G:\Новая папка\Elena - Acasa la noi.mp4
Format                         : MPEG-4
Format profile                 : Base Media
Codec ID                       : isom (isom/iso2/avc1/mp41)
File size                      : 184 MiB
Duration                       : 3 min 44 s
Overall bit rate               : 6 871 kb/s
Frame rate                     : 25.000 FPS
Movie name                     : Acasa la noi
Performer                      : Elena
Genre                          : Pop
ContentType                    : Music Video
Recorded date                  : 2022-01-14 08:00:00 UTC
Writing application            : Lavf56.30.100
Copyright                      : ℗ 2015 Cat Music

Video
ID                             : 1
Format                         : AVC
Format/Info                    : Advanced Video Codec
Format profile                 : High@L4
Format settings                : CABAC / 5 Ref Frames
Format settings, CABAC         : Yes
Format settings, Reference fra : 5 frames
Format settings, Slice count   : 8 slices per frame
Codec ID                       : avc1
Codec ID/Info                  : Advanced Video Coding
Duration                       : 3 min 44 s
Bit rate                       : 6 615 kb/s
Width                          : 1 920 pixels
Height                         : 816 pixels
Display aspect ratio           : 2.35:1
Frame rate mode                : Constant
Frame rate                     : 25.000 FPS
Color space                    : YUV
Chroma subsampling             : 4:2:0
Bit depth                      : 8 bits
Scan type                      : Progressive
Bits/(Pixel*Frame)             : 0.169
Stream size                    : 177 MiB (96%)
Color range                    : Limited
Color primaries                : BT.709
Transfer characteristics       : BT.709
Matrix coefficients            : BT.709
Codec configuration box        : avcC

Audio
ID                             : 2
Format                         : AAC LC
Format/Info                    : Advanced Audio Codec Low Complexity
Codec ID                       : mp4a-40-2
Duration                       : 3 min 44 s
Duration_LastFrame             : -12 ms
Bit rate mode                  : Constant
Bit rate                       : 251 kb/s
Channel(s)                     : 2 channels
Channel layout                 : L R
Sampling rate                  : 48.0 kHz
Frame rate                     : 46.875 FPS (1024 SPF)
Compression mode               : Lossy
Stream size                    : 6.73 MiB (4%)
Default                        : Yes
Alternate group                : 1

</pre>
</div>
<div class="bbCodeBlock bbCodeVfcHH HiddenContent">
<div class="attribution type">Hidden Content:</div>
<blockquote>You must either reply or click 'Like' to see the hidden information contained here.</blockquote>
</div>
<div class="messageTextEndMarker">&nbsp;</div>
</blockquote>
</article>]]></description>
                <author><![CDATA[vitalya3]]></author>
                </item>

                
                <item>
                <title><![CDATA[【SD】Tomcraft - Loneliness (2003, TV-Rip, Dance/Electronic)]]></title>
                <link><![CDATA[https://sharemania.us/threads/tomcraft-loneliness-2003-tv-rip-dance-electronic.249886/]]></link>
                <description><![CDATA[<article>
<blockquote class="messageText SelectQuoteContainer ugc baseHtml">
Tomcraft - Loneliness (2003, TV-Rip, Dance/Electronic)<br>
<br>
<img src="https://images2.imgbox.com/f8/bb/LKTLsOCe_o.jpg" class="bbCodeImage LbImage" alt="[​IMG]" data-url="https://images2.imgbox.com/f8/bb/LKTLsOCe_o.jpg" style=""> <br>
<br>
<span data-s9e-mediaembed="youtube" style="display:inline-block;width:100%;max-width:640px"><span style="display:block;overflow:hidden;position:relative;padding-bottom:56.25%"><iframe allowfullscreen="" loading="lazy" scrolling="no" style="background:url(https://i.ytimg.com/vi/3QV8cOmsTdI/hqdefault.jpg) 50% 50% / cover;border:0;height:100%;left:0;position:absolute;width:100%" src="https://www.youtube.com/embed/3QV8cOmsTdI"></iframe></span></span><br>
<br>
<div class="bbCodeBlock bbCodeVfcHH HiddenContent">
<div class="attribution type">Hidden Content:</div>
<blockquote>You must reply before you can see the hidden data contained here.</blockquote>
</div>Greets, 3rsin.
<div class="messageTextEndMarker">&nbsp;</div>
</blockquote>
</article>]]></description>
                <author><![CDATA[fritching]]></author>
                </item>

                
                <item>
                <title><![CDATA[【Apple Music】WEB-RiP - Elena - Ecou (feat. Glance) (1080p)]]></title>
                <link><![CDATA[https://sharemania.us/threads/elena-ecou-feat-glance-1080p.249889/]]></link>
                <description><![CDATA[<article>
<blockquote class="messageText SelectQuoteContainer ugc baseHtml">
<img src="https://i.postimg.cc/V6BJmsbd/Elena-Ecou-feat-Glance-mp4.jpg" class="bbCodeImage LbImage" alt="[​IMG]" data-url="https://i.postimg.cc/V6BJmsbd/Elena-Ecou-feat-Glance-mp4.jpg" style=""><br>
<br>
<div class="bbCodeBlock bbCodeCode">
<div class="type">Code:</div>
<pre>General
Complete name                  : G:\Новая папка\Elena - Ecou (feat. Glance).mp4
Format                         : MPEG-4
Format profile                 : Base Media
Codec ID                       : isom (isom/iso2/avc1/mp41)
File size                      : 189 MiB
Duration                       : 3 min 55 s
Overall bit rate               : 6 736 kb/s
Frame rate                     : 25.000 FPS
Movie name                     : Ecou (feat. Glance)
Performer                      : Elena
Genre                          : Dance
ContentType                    : Music Video
Recorded date                  : 2022-01-14 08:00:00 UTC
Writing application            : Lavf56.30.100
Copyright                      : ℗ 2013 Cat Music

Video
ID                             : 1
Format                         : AVC
Format/Info                    : Advanced Video Codec
Format profile                 : High@L4
Format settings                : CABAC / 4 Ref Frames
Format settings, CABAC         : Yes
Format settings, Reference fra : 4 frames
Format settings, Slice count   : 8 slices per frame
Codec ID                       : avc1
Codec ID/Info                  : Advanced Video Coding
Duration                       : 3 min 55 s
Bit rate                       : 6 472 kb/s
Width                          : 1 920 pixels
Height                         : 1 080 pixels
Display aspect ratio           : 16:9
Frame rate mode                : Constant
Frame rate                     : 25.000 FPS
Color space                    : YUV
Chroma subsampling             : 4:2:0
Bit depth                      : 8 bits
Scan type                      : Progressive
Bits/(Pixel*Frame)             : 0.125
Stream size                    : 181 MiB (96%)
Color range                    : Limited
Color primaries                : BT.709
Transfer characteristics       : BT.709
Matrix coefficients            : BT.709
Codec configuration box        : avcC

Audio
ID                             : 2
Format                         : AAC LC
Format/Info                    : Advanced Audio Codec Low Complexity
Codec ID                       : mp4a-40-2
Duration                       : 3 min 55 s
Duration_LastFrame             : -4 ms
Bit rate mode                  : Constant
Bit rate                       : 259 kb/s
Channel(s)                     : 2 channels
Channel layout                 : L R
Sampling rate                  : 48.0 kHz
Frame rate                     : 46.875 FPS (1024 SPF)
Compression mode               : Lossy
Stream size                    : 7.26 MiB (4%)
Default                        : Yes
Alternate group                : 1

</pre>
</div>
<div class="bbCodeBlock bbCodeVfcHH HiddenContent">
<div class="attribution type">Hidden Content:</div>
<blockquote>You must either reply or click 'Like' to see the hidden information contained here.</blockquote>
</div>
<div class="messageTextEndMarker">&nbsp;</div>
</blockquote>
</article>]]></description>
                <author><![CDATA[vitalya3]]></author>
                </item>

                </channel></rss>